<svg width="48" height="48" viewBox="0 0 48 48" fill="none" xmlns="http://www.w3.org/2000/svg">
<path d="M31.592 37.4081C32.0146 37.8308 32.2521 38.4041 32.2521 39.0019C32.2521 39.5997 32.0146 40.1729 31.592 40.5956C31.1693 41.0183 30.596 41.2558 29.9982 41.2558C29.4004 41.2558 28.8271 41.0183 28.4045 40.5956L13.4044 25.5956C13.1947 25.3866 13.0283 25.1382 12.9147 24.8647C12.8011 24.5912 12.7427 24.298 12.7427 24.0019C12.7427 23.7058 12.8011 23.4125 12.9147 23.139C13.0283 22.8656 13.1947 22.6172 13.4044 22.4081L28.4045 7.40814C28.8271 6.98545 29.4004 6.74799 29.9982 6.74799C30.596 6.74799 31.1693 6.98545 31.592 7.40814C32.0146 7.83083 32.2521 8.40412 32.2521 9.00189C32.2521 9.59966 32.0146 10.1729 31.592 10.5956L18.1876 24L31.592 37.4081Z"/>
</svg>
