<svg width="48" height="48" viewBox="0 0 48 48" fill="none" xmlns="http://www.w3.org/2000/svg">
<path d="M34.5918 25.5919L19.5918 40.5919C19.1691 41.0145 18.5958 41.252 17.998 41.252C17.4003 41.252 16.827 41.0145 16.4043 40.5919C15.9816 40.1692 15.7441 39.5959 15.7441 38.9981C15.7441 38.4003 15.9816 37.827 16.4043 37.4044L29.8124 24L16.408 10.5919C16.1987 10.3826 16.0327 10.1341 15.9195 9.86064C15.8062 9.58718 15.7479 9.29409 15.7479 8.9981C15.7479 8.70212 15.8062 8.40903 15.9195 8.13557C16.0327 7.86212 16.1987 7.61365 16.408 7.40435C16.6173 7.19506 16.8658 7.02904 17.1393 6.91577C17.4127 6.8025 17.7058 6.7442 18.0018 6.7442C18.2978 6.7442 18.5909 6.8025 18.8643 6.91577C19.1378 7.02904 19.3863 7.19506 19.5955 7.40435L34.5955 22.4044C34.8051 22.6136 34.9712 22.8622 35.0844 23.1358C35.1977 23.4095 35.2558 23.7028 35.2554 23.9989C35.2551 24.295 35.1963 24.5882 35.0824 24.8615C34.9685 25.1349 34.8018 25.3831 34.5918 25.5919Z"/>
</svg>
