<svg width="48" height="48" viewBox="0 0 48 48" fill="none" xmlns="http://www.w3.org/2000/svg">
<path d="M27.75 18V9C27.75 8.40326 27.9871 7.83097 28.409 7.40901C28.831 6.98705 29.4033 6.75 30 6.75C30.5967 6.75 31.169 6.98705 31.591 7.40901C32.0129 7.83097 32.25 8.40326 32.25 9V15.75H39C39.5967 15.75 40.169 15.9871 40.591 16.409C41.0129 16.831 41.25 17.4033 41.25 18C41.25 18.5967 41.0129 19.169 40.591 19.591C40.169 20.0129 39.5967 20.25 39 20.25H30C29.4033 20.25 28.831 20.0129 28.409 19.591C27.9871 19.169 27.75 18.5967 27.75 18ZM18 27.75H9C8.40326 27.75 7.83097 27.9871 7.40901 28.409C6.98705 28.831 6.75 29.4033 6.75 30C6.75 30.5967 6.98705 31.169 7.40901 31.591C7.83097 32.0129 8.40326 32.25 9 32.25H15.75V39C15.75 39.5967 15.9871 40.169 16.409 40.591C16.831 41.0129 17.4033 41.25 18 41.25C18.5967 41.25 19.169 41.0129 19.591 40.591C20.0129 40.169 20.25 39.5967 20.25 39V30C20.25 29.4033 20.0129 28.831 19.591 28.409C19.169 27.9871 18.5967 27.75 18 27.75ZM39 27.75H30C29.4033 27.75 28.831 27.9871 28.409 28.409C27.9871 28.831 27.75 29.4033 27.75 30V39C27.75 39.5967 27.9871 40.169 28.409 40.591C28.831 41.0129 29.4033 41.25 30 41.25C30.5967 41.25 31.169 41.0129 31.591 40.591C32.0129 40.169 32.25 39.5967 32.25 39V32.25H39C39.5967 32.25 40.169 32.0129 40.591 31.591C41.0129 31.169 41.25 30.5967 41.25 30C41.25 29.4033 41.0129 28.831 40.591 28.409C40.169 27.9871 39.5967 27.75 39 27.75ZM18 6.75C17.4033 6.75 16.831 6.98705 16.409 7.40901C15.9871 7.83097 15.75 8.40326 15.75 9V15.75H9C8.40326 15.75 7.83097 15.9871 7.40901 16.409C6.98705 16.831 6.75 17.4033 6.75 18C6.75 18.5967 6.98705 19.169 7.40901 19.591C7.83097 20.0129 8.40326 20.25 9 20.25H18C18.5967 20.25 19.169 20.0129 19.591 19.591C20.0129 19.169 20.25 18.5967 20.25 18V9C20.25 8.40326 20.0129 7.83097 19.591 7.40901C19.169 6.98705 18.5967 6.75 18 6.75Z"/>
</svg>
