<svg width="48" height="48" viewBox="0 0 48 48" fill="none" xmlns="http://www.w3.org/2000/svg">
  <path d="M41.25 9V16.5C41.25 17.0967 41.0129 17.669 40.591 18.091C40.169 18.5129 39.5967 18.75 39 18.75C38.4033 18.75 37.831 18.5129 37.409 18.091C36.9871 17.669 36.75 17.0967 36.75 16.5V11.25H31.5C30.9033 11.25 30.331 11.0129 29.909 10.591C29.4871 10.169 29.25 9.59674 29.25 9C29.25 8.40326 29.4871 7.83097 29.909 7.40901C30.331 6.98705 30.9033 6.75 31.5 6.75H39C39.5967 6.75 40.169 6.98705 40.591 7.40901C41.0129 7.83097 41.25 8.40326 41.25 9ZM16.5 36.75H11.25V31.5C11.25 30.9033 11.0129 30.331 10.591 29.909C10.169 29.4871 9.59674 29.25 9 29.25C8.40326 29.25 7.83097 29.4871 7.40901 29.909C6.98705 30.331 6.75 30.9033 6.75 31.5V39C6.75 39.5967 6.98705 40.169 7.40901 40.591C7.83097 41.0129 8.40326 41.25 9 41.25H16.5C17.0967 41.25 17.669 41.0129 18.091 40.591C18.5129 40.169 18.75 39.5967 18.75 39C18.75 38.4033 18.5129 37.831 18.091 37.409C17.669 36.9871 17.0967 36.75 16.5 36.75ZM39 29.25C38.4033 29.25 37.831 29.4871 37.409 29.909C36.9871 30.331 36.75 30.9033 36.75 31.5V36.75H31.5C30.9033 36.75 30.331 36.9871 29.909 37.409C29.4871 37.831 29.25 38.4033 29.25 39C29.25 39.5967 29.4871 40.169 29.909 40.591C30.331 41.0129 30.9033 41.25 31.5 41.25H39C39.5967 41.25 40.169 41.0129 40.591 40.591C41.0129 40.169 41.25 39.5967 41.25 39V31.5C41.25 30.9033 41.0129 30.331 40.591 29.909C40.169 29.4871 39.5967 29.25 39 29.25ZM16.5 6.75H9C8.40326 6.75 7.83097 6.98705 7.40901 7.40901C6.98705 7.83097 6.75 8.40326 6.75 9V16.5C6.75 17.0967 6.98705 17.669 7.40901 18.091C7.83097 18.5129 8.40326 18.75 9 18.75C9.59674 18.75 10.169 18.5129 10.591 18.091C11.0129 17.669 11.25 17.0967 11.25 16.5V11.25H16.5C17.0967 11.25 17.669 11.0129 18.091 10.591C18.5129 10.169 18.75 9.59674 18.75 9C18.75 8.40326 18.5129 7.83097 18.091 7.40901C17.669 6.98705 17.0967 6.75 16.5 6.75Z"/>
</svg>
