<svg width="16" height="16" viewBox="0 0 16 16" fill="none" xmlns="http://www.w3.org/2000/svg">
<path fill-rule="evenodd" clip-rule="evenodd" d="M10.213 1.05708C10.4932 0.940996 10.8158 1.00516 11.0303 1.21966L14.7803 4.96966C14.9948 5.18416 15.059 5.50675 14.9429 5.787C14.8268 6.06726 14.5533 6.24999 14.25 6.24999H13.0124L8.75 10.7966V13C8.75 13.3033 8.56727 13.5768 8.28701 13.6929C8.00676 13.809 7.68417 13.7448 7.46967 13.5303L5.5 11.5607L2.28033 14.7803C1.98744 15.0732 1.51256 15.0732 1.21967 14.7803C0.926777 14.4874 0.926777 14.0126 1.21967 13.7197L4.43934 10.5L2.46967 8.53032C2.25517 8.31582 2.191 7.99323 2.30709 7.71298C2.42318 7.43272 2.69665 7.24999 3 7.24999H5.20341L9.75 2.98757V1.74999C9.75 1.44664 9.93273 1.17317 10.213 1.05708Z"/>
</svg>
