<svg width="48" height="48" viewBox="0 0 48 48" fill="none" xmlns="http://www.w3.org/2000/svg">
<path d="M39.0918 35.9081C39.5145 36.3308 39.7519 36.9041 39.7519 37.5019C39.7519 38.0996 39.5145 38.6729 39.0918 39.0956C38.6691 39.5183 38.0958 39.7558 37.498 39.7558C36.9003 39.7558 36.327 39.5183 35.9043 39.0956L23.9999 27.1875L12.0918 39.0919C11.6691 39.5146 11.0958 39.752 10.498 39.752C9.90027 39.752 9.32698 39.5146 8.90429 39.0919C8.4816 38.6692 8.24414 38.0959 8.24414 37.4981C8.24414 36.9004 8.48161 36.3271 8.90429 35.9044L20.8124 24L8.90804 12.0919C8.48535 11.6692 8.24789 11.0959 8.24789 10.4981C8.24789 9.90035 8.48535 9.32706 8.90804 8.90438C9.33073 8.48169 9.90402 8.24422 10.5018 8.24422C11.0996 8.24422 11.6729 8.48169 12.0955 8.90438L23.9999 20.8125L35.908 8.9025C36.3307 8.47981 36.904 8.24235 37.5018 8.24235C38.0996 8.24235 38.6729 8.47981 39.0955 8.9025C39.5182 9.32519 39.7557 9.89848 39.7557 10.4963C39.7557 11.094 39.5182 11.6673 39.0955 12.09L27.1874 24L39.0918 35.9081Z"/>
</svg>
